<?xml version="1.0" encoding="utf-8" ?>
<svg xmlns="http://www.w3.org/2000/svg" xmlns:xlink="http://www.w3.org/1999/xlink" width="24" height="24" viewBox="0 0 24 24">
	<defs>
		<clipPath id="clipPath5328569515">
			<path transform="matrix(1 0 0 1 -0 -0)" d="M0 0L24 0L24 24L0 24L0 0Z" fill-rule="nonzero"/>
		</clipPath>
	</defs>
	<g clip-path="url(#clipPath5328569515)">
		<path transform="matrix(1 0 0 1 0.375 0.375)" d="M23.25 11.625C23.25 5.20312 18.0469 0 11.625 0C5.20312 0 0 5.20312 0 11.625C0 17.4272 4.25109 22.2366 9.80859 23.1094L9.80859 14.9855L6.85547 14.9855L6.85547 11.625L9.80859 11.625L9.80859 9.06375C9.80859 6.15047 11.543 4.54125 14.1994 4.54125C15.4716 4.54125 16.8019 4.76813 16.8019 4.76813L16.8019 7.6275L15.3356 7.6275C13.8919 7.6275 13.4414 8.52375 13.4414 9.44297L13.4414 11.625L16.6655 11.625L16.1498 14.9855L13.4414 14.9855L13.4414 23.1094C18.9989 22.2366 23.25 17.4272 23.25 11.625Z" fill-rule="nonzero" fill="rgb(255, 255, 255)"/>
	</g>
</svg>
