<?xml version="1.0" encoding="utf-8" ?>
<svg xmlns="http://www.w3.org/2000/svg" xmlns:xlink="http://www.w3.org/1999/xlink" width="24" height="24" viewBox="0 0 24 24">
	<defs>
		<clipPath id="clipPath8918516289">
			<path transform="matrix(1 0 0 1 -0 -0)" d="M0 0L24 0L24 24L0 24L0 0Z" fill-rule="nonzero"/>
		</clipPath>
	</defs>
	<g clip-path="url(#clipPath8918516289)">
		<path transform="matrix(1 0 0 1 1.49648 1.4918)" d="M10.5082 5.11758C7.52695 5.11758 5.12227 7.52227 5.12227 10.5035C5.12227 13.4848 7.52695 15.8895 10.5082 15.8895C13.4895 15.8895 15.8941 13.4848 15.8941 10.5035C15.8941 7.52226 13.4895 5.11758 10.5082 5.11758ZM10.5082 14.0051C8.58164 14.0051 7.00664 12.4348 7.00664 10.5035C7.00664 8.57227 8.57695 7.00195 10.5082 7.00195C12.4395 7.00195 14.0098 8.57227 14.0098 10.5035C14.0098 12.4348 12.4348 14.0051 10.5082 14.0051ZM17.3707 4.89727C17.3707 5.5957 16.8082 6.15352 16.1145 6.15352C15.416 6.15352 14.8582 5.59102 14.8582 4.89727C14.8582 4.20352 15.4207 3.64102 16.1145 3.64102C16.8082 3.64102 17.3707 4.20352 17.3707 4.89727ZM20.9379 6.17227C20.8582 4.48945 20.4738 2.99883 19.241 1.7707C18.0129 0.542578 16.5223 0.158203 14.8395 0.0738282C13.1051 -0.0246094 7.90664 -0.0246094 6.17227 0.0738282C4.49414 0.153516 3.00352 0.537891 1.7707 1.76602C0.537891 2.99414 0.158203 4.48477 0.0738281 6.16758C-0.0246094 7.90195 -0.0246094 13.1004 0.0738281 14.8348C0.153516 16.5176 0.537891 18.0082 1.7707 19.2363C3.00352 20.4645 4.48945 20.8488 6.17227 20.9332C7.90664 21.0316 13.1051 21.0316 14.8395 20.9332C16.5223 20.8535 18.0129 20.4691 19.241 19.2363C20.4691 18.0082 20.8535 16.5176 20.9379 14.8348C21.0363 13.1004 21.0363 7.90664 20.9379 6.17227ZM18.6973 16.6957C18.3316 17.6145 17.6238 18.3223 16.7004 18.6926C15.3176 19.241 12.0363 19.1145 10.5082 19.1145C8.98008 19.1145 5.69414 19.2363 4.31601 18.6926C3.39726 18.327 2.68945 17.6191 2.31914 16.6957C1.7707 15.3129 1.89726 12.0316 1.89726 10.5035C1.89726 8.97539 1.77539 5.68945 2.31914 4.31133C2.68476 3.39258 3.39258 2.68477 4.31601 2.31445C5.69883 1.76602 8.98008 1.89258 10.5082 1.89258C12.0363 1.89258 15.3223 1.7707 16.7004 2.31445C17.6191 2.68008 18.327 3.38789 18.6973 4.31133C19.2457 5.69414 19.1191 8.97539 19.1191 10.5035C19.1191 12.0316 19.2457 15.3176 18.6973 16.6957Z" fill-rule="nonzero" fill="rgb(255, 255, 255)"/>
	</g>
</svg>
