<?xml version="1.0" encoding="utf-8" ?>
<svg xmlns="http://www.w3.org/2000/svg" xmlns:xlink="http://www.w3.org/1999/xlink" width="24" height="24" viewBox="0 0 24 24">
	<defs>
		<clipPath id="clipPath4324965695">
			<path transform="matrix(1 0 0 1 -0 -0)" d="M0 0L24 0L24 24L0 24L0 0Z" fill-rule="nonzero"/>
		</clipPath>
	</defs>
	<g clip-path="url(#clipPath4324965695)">
		<path transform="matrix(1 0 0 1 1.5 1.5)" d="M19.5 0L1.49531 0C0.670313 0 0 0.679688 0 1.51406L0 19.4859C0 20.3203 0.670313 21 1.49531 21L19.5 21C20.325 21 21 20.3203 21 19.4859L21 1.51406C21 0.679688 20.325 1.78814e-07 19.5 0ZM6.34687 18L3.23438 18L3.23438 7.97812L6.35156 7.97812L6.35156 18L6.34687 18ZM4.79062 6.60938C3.79219 6.60938 2.98594 5.79844 2.98594 4.80469C2.98594 3.81094 3.79219 3 4.79062 3C5.78437 3 6.59531 3.81094 6.59531 4.80469C6.59531 5.80313 5.78906 6.60938 4.79062 6.60938ZM18.0141 18L14.9016 18L14.9016 13.125C14.9016 11.9625 14.8781 10.4672 13.2844 10.4672C11.6625 10.4672 11.4141 11.7328 11.4141 13.0406L11.4141 18L8.30156 18L8.30156 7.97812L11.2875 7.97812L11.2875 9.34687L11.3297 9.34687C11.7469 8.55937 12.7641 7.72969 14.2781 7.72969C17.4281 7.72969 18.0141 9.80625 18.0141 12.5062L18.0141 18Z" fill-rule="nonzero" fill="rgb(255, 255, 255)"/>
	</g>
</svg>
