<?xml version="1.0" encoding="utf-8" ?>
<svg xmlns="http://www.w3.org/2000/svg" xmlns:xlink="http://www.w3.org/1999/xlink" width="24" height="24" viewBox="0 0 24 24">
	<defs>
		<clipPath id="clipPath6580916703">
			<path transform="matrix(1 0 0 1 -0 -0)" d="M0 0L24 0L24 24L0 24L0 0Z" fill-rule="nonzero"/>
		</clipPath>
	</defs>
	<g clip-path="url(#clipPath6580916703)">
		<path transform="matrix(1 0 0 1 0 2.25384)" d="M21.533 4.85784C21.5482 5.07103 21.5482 5.28427 21.5482 5.49745C21.5482 12 16.599 19.4924 7.5533 19.4924C4.76648 19.4924 2.17767 18.6852 0 17.2843C0.395953 17.3299 0.776625 17.3452 1.18781 17.3452C3.48727 17.3452 5.60405 16.5685 7.29441 15.2437C5.13197 15.198 3.31978 13.7817 2.69541 11.8325C3 11.8781 3.30455 11.9086 3.62437 11.9086C4.06598 11.9086 4.50764 11.8477 4.91878 11.7411C2.66498 11.2842 0.974578 9.30455 0.974578 6.91369L0.974578 6.8528C1.62937 7.21828 2.39086 7.4467 3.19791 7.47713C1.87303 6.59386 1.00505 5.08627 1.00505 3.38067C1.00505 2.46698 1.24866 1.62942 1.67508 0.898453C4.09641 3.88322 7.73602 5.83242 11.8172 6.04566C11.7411 5.68017 11.6954 5.2995 11.6954 4.91878C11.6954 2.20809 13.8883 0 16.6141 0C18.0304 0 19.3095 0.593906 20.208 1.5533C21.3197 1.34011 22.3857 0.928922 23.3299 0.365484C22.9643 1.50764 22.1877 2.46703 21.1674 3.07613C22.1573 2.96958 23.1167 2.69541 23.9999 2.31473C23.33 3.28931 22.4924 4.1573 21.533 4.85784Z" fill-rule="nonzero" fill="rgb(255, 255, 255)"/>
	</g>
</svg>
